{"title":"Chick Lit 2016 Movies HDRip XviD AAC New Source +Sample ~ ☻rDX☻","uid":15876557,"size":740262130,"categoryP":"video","categoryS":"movies","magnet":"?xt=urn:btih:7f01ed2166e6313d4481c50c2e58506ea709fc2e&amp;dn=Chick+Lit+2016+Movies+HDRip+XviD+AAC+New+Source+%2BSample+%7E+%E2%98%BBrDX%E2%98%BB&amp;tr=udp%3A%2F%2Ftracker.leechers-paradise.org%3A6969&amp;tr=udp%3A%2F%2Fzer0day.ch%3A1337&amp;tr=udp%3A%2F%2Fopen.demonii.com%3A1337&amp;tr=udp%3A%2F%2Ftracker.coppersurfer.tk%3A6969&amp;tr=udp%3A%2F%2Fexodus.desync.com%3A6969","seeders":6,"leechers":0,"uploader":"basicssom","files":2,"time":1474520421,"description":"Chick Lit 2016 English Movies HDRip XviD AAC New Source with Sample ☻rDX☻\r\n\r\nSCREEN SHOTS &amp; POSTER:\r\n  \nhttp://postimage.co.nr/2016/9/diner/index.htm  \nhttp://postimage.co.nr/2016/9/diner/1.html  \nhttp://postimage.co.nr/2016/9/diner/2.html  \nhttp://postimage.co.nr/2016/9/diner/3.html  \nhttp://postimage.co.nr/2016/9/diner/4.html  \nhttp://postimage.co.nr/2016/9/diner/5.html  \nhttp://postimage.co.nr/2016/9/diner/6.html  \nhttp://postimage.co.nr/2016/9/diner/7.html  \nhttp://postimage.co.nr/2016/9/diner/8.html  \nhttp://postimage.co.nr/2016/9/diner/9.html  \nhttp://postimage.co.nr/2016/9/diner/10.html\r\n\r\nFormat                                   : Matroska\r\nFormat version                           : Version 4 / Version 2\r\nFile size                                : 694 MiB\r\nDuration                                 : 1 h 32 min\r\nOverall bit rate                         : 1 048 kb/s\r\nMovie name                               : Chick Lit 2016 English Movies HDRip XviD AAC New Source ☻rDX☻\r\n\r\nVideo\r\nID                                       : 1\r\nFormat                                   : MPEG-4 Visual\r\nFormat profile                           : Advanced   \r\nFormat settings, BVOP                    : 2\r\nFormat settings, QPel                    : No\r\nFormat settings, GMC                     : No warppoints\r\nFormat settings, Matrix                  : Default (H.263)\r\nMuxing mode                              : Packed bitstream\r\nCodec ID                                 : V_MS/VFW/FOURCC / XVID\r\nCodec ID/Hint                            : XviD\r\nDuration                                 : 1 h 32 min\r\nBit rate                                 : 899 kb/s\r\nWidth                                    : 640 pixels\r\nHeight                                   : 272 pixels\r\nDisplay aspect ratio                     : 2.35:1\r\nFrame rate mode                          : Constant\r\nFrame rate                               : 24.000 FPS\r\nColor space                              : YUV\r\nChroma subsampling                       : 4:2:0\r\nBit depth                                : 8 bits\r\nScan type                                : Progressive\r\nCompression mode                         : Lossy\r\nBits/(Pixel*Frame)                       : 0.215\r\nStream size                              : 596 MiB (86%)\r\nTitle                                    : ☻rDX☻\r\nWriting library                          : XviD 64\r\nDefault                                  : Yes\r\nForced                                   : No\r\n\r\nAudio\r\nID                                       : 2\r\nFormat                                   : MPEG Audio\r\nFormat version                           : Version 1\r\nFormat profile                           : Layer 3\r\nMode                                     : Joint stereo\r\nMode extension                           : MS Stereo\r\nCodec ID                                 : A_MPEG/L3\r\nCodec ID/Hint                            : MP3\r\nDuration                                 : 1 h 32 min\r\nBit rate mode                            : Constant\r\nBit rate                                 : 128 kb/s\r\nChannel(s)                               : 2 channels\r\nSampling rate                            : 48.0 kHz\r\nCompression mode                         : Lossy\r\nStream size                              : 84.8 MiB (12%)\r\nTitle                                    : ☻rDX☻\r\nWriting library                          : LAME3.99r\r\nEncoding settings                        : -m j -V 4 -q 3 -lowpass 17 -b 128\r\nDefault                                  : Yes\r\nForced                                   : No\r\n\r\nIMDB \nhttp://gb.imdb.com/title/tt3865238/","torrent":{"xt":"urn:btih:7f01ed2166e6313d4481c50c2e58506ea709fc2e","amp;dn":"Chick+Lit+2016+Movies+HDRip+XviD+AAC+New+Source+%2BSample+%7E+%E2%98%BBrDX%E2%98%BB","amp;tr":["udp%3A%2F%2Ftracker.leechers-paradise.org%3A6969","udp%3A%2F%2Fzer0day.ch%3A1337","udp%3A%2F%2Fopen.demonii.com%3A1337","udp%3A%2F%2Ftracker.coppersurfer.tk%3A6969","udp%3A%2F%2Fexodus.desync.com%3A6969"],"infoHash":"7f01ed2166e6313d4481c50c2e58506ea709fc2e","infoHashBuffer":{"type":"Buffer","data":[127,1,237,33,102,230,49,61,68,129,197,12,46,88,80,110,167,9,252,46]},"announce":[],"urlList":[]}}